<?xml version="1.0" standalone="no"?>
<!DOCTYPE svg PUBLIC "-//W3C//DTD SVG 20010904//EN"
 "http://www.w3.org/TR/2001/REC-SVG-20010904/DTD/svg10.dtd">
<svg version="1.0" xmlns="http://www.w3.org/2000/svg"
 width="79.000000pt" height="79.000000pt" viewBox="0 0 79.000000 79.000000"
 preserveAspectRatio="xMidYMid meet">
<metadata>
Created by potrace 1.11, written by Peter Selinger 2001-2013
</metadata>
<g transform="translate(0.000000,79.000000) scale(0.100000,-0.100000)"
fill="#000000" stroke="none">
<path d="M343 784 c3 -4 0 -19 -9 -35 -13 -26 -13 -29 2 -29 10 0 15 3 11 6
-3 4 0 19 9 35 13 26 13 29 -2 29 -10 0 -15 -3 -11 -6z"/>
<path d="M399 783 c0 -5 -2 -18 -3 -30 -2 -13 1 -23 6 -23 4 0 8 14 8 30 0 26
-8 44 -11 23z"/>
<path d="M437 784 c-4 -4 -7 -21 -6 -38 0 -17 3 -25 6 -18 4 10 8 10 21 0 14
-11 13 -8 -2 16 -10 16 -14 26 -9 23 5 -3 15 -1 23 5 12 8 12 9 -2 5 -9 -3
-18 -1 -20 4 -2 6 -7 7 -11 3z"/>
<path d="M286 752 c7 -37 -13 -53 -22 -17 -3 14 -10 25 -15 25 -9 0 -1 -28 14
-47 16 -21 45 2 39 32 -2 14 -8 28 -13 31 -5 3 -6 -8 -3 -24z"/>
<path d="M491 757 c-14 -17 -6 -43 16 -51 22 -9 45 13 41 38 -4 25 -40 33 -57
13z m44 -7 c8 -13 -14 -42 -26 -34 -5 3 -9 14 -9 25 0 20 24 26 35 9z"/>
<path d="M203 721 c3 -11 -1 -22 -9 -25 -8 -3 -13 0 -11 6 1 6 -4 13 -10 15
-19 7 -15 -8 7 -37 13 -15 18 -18 14 -7 -5 13 -2 16 12 10 12 -5 15 -3 9 6 -6
10 -2 11 16 6 21 -7 22 -6 10 8 -7 9 -17 14 -22 11 -5 -3 -6 2 -3 10 4 9 1 16
-6 16 -7 0 -10 -8 -7 -19z"/>
<path d="M572 715 c4 -16 0 -25 -11 -28 -10 -3 -7 -5 8 -6 20 -1 22 2 17 25
-6 22 -4 25 9 20 9 -3 13 -2 10 4 -3 6 -13 10 -22 10 -11 0 -14 -7 -11 -25z"/>
<path d="M637 669 c-26 -30 -15 -34 13 -4 13 14 19 25 14 25 -5 0 -18 -9 -27
-21z"/>
<path d="M94 655 c-8 -21 3 -34 26 -28 20 5 28 -11 10 -20 -6 -3 -5 -4 2 -3 7
1 14 10 16 19 3 13 -4 17 -23 17 -20 0 -26 4 -21 15 3 8 3 15 0 15 -2 0 -7 -7
-10 -15z"/>
<path d="M663 643 c-13 -8 -23 -20 -23 -25 0 -6 7 -4 16 3 15 12 16 11 10 -11
-6 -22 -5 -23 6 -10 8 8 20 21 28 29 13 12 13 13 -2 8 -12 -4 -15 -2 -11 9 6
17 4 17 -24 -3z"/>
<path d="M50 591 c-7 -15 -6 -23 6 -35 21 -22 41 -20 49 4 13 41 -35 68 -55
31z m39 0 c8 -5 11 -16 8 -25 -5 -13 -11 -15 -26 -6 -12 6 -18 16 -15 25 7 17
13 18 33 6z"/>
<path d="M182 443 l2 -168 3 163 3 162 204 0 c154 0 206 -3 209 -12 3 -8 6 -6
6 5 1 16 -16 17 -214 17 l-215 0 2 -167z"/>
<path d="M198 418 c-3 -179 1 -207 41 -251 20 -24 57 -45 46 -27 -5 8 -3 11 6
8 8 -3 14 -11 14 -18 0 -18 37 -28 95 -28 39 0 37 2 -19 9 -81 10 -93 21 -15
13 41 -4 72 -1 102 10 23 8 42 13 42 10 0 -3 -14 -10 -31 -16 -16 -6 -28 -12
-25 -15 10 -10 78 31 101 61 28 37 61 111 46 101 -8 -4 -11 45 -11 154 l0 161
-194 0 -195 0 -3 -172z m382 50 l0 -108 -185 0 -185 0 0 108 0 109 185 0 185
0 0 -109z m-190 -228 c0 -122 0 -121 -65 -91 -67 31 -115 102 -115 171 l0 30
90 0 90 0 0 -110z m190 81 c0 -87 -68 -169 -154 -185 l-26 -5 0 110 0 109 90
0 90 0 0 -29z m-373 -73 c-3 -8 -6 -5 -6 6 -1 11 2 17 5 13 3 -3 4 -12 1 -19z
m370 -25 c-18 -33 -51 -73 -62 -73 -4 0 7 16 24 35 17 20 34 48 38 63 3 15 8
22 10 15 2 -6 -2 -24 -10 -40z m-322 -42 c26 -29 27 -32 8 -22 -13 6 -30 26
-39 44 -9 18 -12 28 -8 22 5 -5 23 -25 39 -44z"/>
<path d="M252 475 c0 -42 2 -45 27 -44 17 1 20 3 9 6 -17 4 -22 19 -19 55 1 9
-3 19 -8 22 -6 4 -10 -10 -9 -39z"/>
<path d="M371 502 c-14 -26 -14 -42 -1 -22 7 11 10 7 10 -17 0 -18 5 -33 10
-33 7 0 9 16 5 43 -8 51 -10 54 -24 29z"/>
<path d="M444 512 c-11 -8 -14 -82 -3 -82 6 0 19 80 15 87 -1 1 -6 -1 -12 -5z"/>
<path d="M488 478 c-10 -23 -16 -44 -13 -47 3 -3 8 5 12 17 3 12 9 19 14 16 5
-3 6 2 3 10 -3 9 -3 16 0 16 4 0 12 -13 17 -30 6 -16 14 -30 19 -30 9 0 -12
66 -26 80 -5 5 -16 -7 -26 -32z"/>
<path d="M313 468 c-1 -38 0 -40 6 -13 l8 30 8 -28 c4 -17 11 -25 16 -20 10
10 -17 73 -30 73 -4 0 -8 -19 -8 -42z"/>
<path d="M262 278 c-3 -62 13 -88 56 -88 20 0 32 3 29 6 -3 4 0 15 7 26 9 13
11 29 7 46 -5 15 -6 34 -3 42 4 11 -1 9 -17 -5 -18 -15 -24 -16 -30 -6 -6 10
-10 10 -16 1 -5 -8 -10 -7 -19 5 -10 14 -12 9 -14 -27z m39 -22 c6 3 5 -3 -3
-15 -10 -16 -14 -18 -20 -7 -5 8 -5 23 -1 33 7 17 8 17 11 0 2 -9 8 -14 13
-11z m33 18 c9 -3 16 -16 15 -28 0 -15 -2 -16 -6 -6 -4 8 -13 20 -22 27 -17
13 -12 16 13 7z m-4 -40 c0 -8 -5 -12 -10 -9 -6 4 -8 11 -5 16 9 14 15 11 15
-7z"/>
<path d="M424 266 c6 -56 20 -76 52 -76 31 0 54 25 55 61 1 16 2 37 3 46 1 13
-9 17 -58 17 l-58 1 6 -49z m96 2 c0 -39 -17 -68 -39 -68 -26 0 -38 18 -45 65
l-6 40 45 -3 c42 -4 45 -6 45 -34z"/>
<path d="M450 269 c0 -5 5 -7 10 -4 6 3 10 8 10 11 0 2 -4 4 -10 4 -5 0 -10
-5 -10 -11z"/>
<path d="M490 269 c0 -5 5 -7 10 -4 6 3 10 8 10 11 0 2 -4 4 -10 4 -5 0 -10
-5 -10 -11z"/>
<path d="M468 223 c6 -2 18 -2 25 0 6 3 1 5 -13 5 -14 0 -19 -2 -12 -5z"/>
<path d="M737 566 c-4 -9 -13 -16 -22 -16 -8 0 -15 -4 -15 -10 0 -6 9 -6 24 0
13 5 27 6 30 3 9 -9 7 10 -3 25 -7 11 -9 11 -14 -2z"/>
<path d="M604 430 c0 -80 2 -112 3 -72 2 39 2 105 0 145 -1 39 -3 7 -3 -73z"/>
<path d="M43 523 c18 -21 18 -22 -10 -26 -24 -3 -22 -4 10 -6 44 -1 46 7 9 33
l-27 20 18 -21z"/>
<path d="M728 503 c-21 -5 -22 -12 -7 -33 9 -12 10 -12 5 4 -5 13 -2 17 9 12
8 -3 15 -1 15 4 0 5 8 11 18 13 14 4 13 5 -3 5 -11 0 -28 -2 -37 -5z"/>
<path d="M10 459 c0 -4 10 -9 22 -11 12 -2 23 -9 26 -17 3 -10 -3 -12 -27 -9
-17 2 -31 1 -31 -4 0 -5 15 -8 33 -6 24 2 33 8 35 24 2 17 -3 22 -27 26 -17 3
-31 1 -31 -3z"/>
<path d="M742 436 c27 -11 27 -12 7 -25 -29 -17 -18 -25 15 -10 34 16 33 25
-5 38 -42 14 -52 13 -17 -3z"/>
<path d="M1 365 c0 -16 3 -25 7 -18 4 6 21 13 37 16 l30 4 -32 2 c-17 0 -34 7
-36 14 -3 6 -6 -1 -6 -18z"/>
<path d="M780 369 c0 -5 -4 -7 -10 -4 -5 3 -10 2 -10 -3 0 -6 7 -12 15 -16 10
-4 15 1 15 14 0 11 -2 20 -5 20 -3 0 -5 -5 -5 -11z"/>
<path d="M730 360 c0 -5 5 -10 10 -10 6 0 10 5 10 10 0 6 -4 10 -10 10 -5 0
-10 -4 -10 -10z"/>
<path d="M729 311 c11 -7 10 -11 -5 -21 -14 -8 -14 -10 -3 -7 9 3 21 1 27 -5
6 -6 15 -7 21 -4 19 12 12 33 -11 40 -33 8 -45 7 -29 -3z m41 -21 c0 -5 -2
-10 -4 -10 -3 0 -8 5 -11 10 -3 6 -1 10 4 10 6 0 11 -4 11 -10z"/>
<path d="M10 298 c0 -10 6 -18 13 -18 24 0 57 12 57 21 0 5 -12 4 -27 -2 -20
-7 -28 -6 -35 3 -6 10 -8 8 -8 -4z"/>
<path d="M44 255 c-24 -18 -7 -19 26 0 16 9 19 14 9 15 -8 0 -24 -7 -35 -15z"/>
<path d="M690 249 c0 -5 4 -8 9 -5 14 9 41 -4 41 -20 0 -17 -36 -19 -43 -1 -4
7 -6 8 -6 1 -1 -6 6 -17 14 -24 12 -10 18 -10 30 0 20 16 19 46 -1 54 -24 9
-44 7 -44 -5z"/>
<path d="M96 237 c3 -8 -6 -18 -22 -26 -15 -6 -24 -14 -22 -17 3 -2 17 1 32 7
26 12 34 33 16 44 -5 3 -7 0 -4 -8z"/>
<path d="M100 169 c0 -5 5 -7 10 -4 6 3 10 8 10 11 0 2 -4 4 -10 4 -5 0 -10
-5 -10 -11z"/>
<path d="M670 170 c0 -5 5 -10 10 -10 6 0 10 5 10 10 0 6 -4 10 -10 10 -5 0
-10 -4 -10 -10z"/>
<path d="M161 145 c-1 -12 -4 -16 -9 -9 -4 7 -15 8 -29 3 -30 -11 -29 -17 1
-12 21 4 24 2 20 -18 -5 -22 -4 -21 11 4 9 16 14 34 11 40 -2 7 -5 3 -5 -8z"/>
<path d="M620 151 c0 -5 5 -13 10 -16 6 -4 8 -10 6 -14 -3 -4 0 -13 5 -21 8
-12 9 -11 7 5 -2 16 2 19 21 17 29 -3 27 0 -16 22 -18 9 -33 12 -33 7z"/>
<path d="M187 96 c-21 -31 -22 -42 -3 -27 11 10 15 8 19 -6 4 -14 5 -13 6 5 1
13 8 22 19 23 13 0 14 2 2 6 -8 3 -18 10 -21 15 -3 5 -13 -2 -22 -16z"/>
<path d="M580 117 c0 -5 9 -20 20 -34 11 -14 20 -21 20 -15 0 12 -39 60 -40
49z"/>
<path d="M555 69 c9 -17 19 -29 21 -26 7 7 -18 57 -28 57 -5 0 -1 -14 7 -31z"/>
<path d="M511 80 c0 -8 6 -26 15 -40 l15 -25 -7 25 c-3 14 -10 32 -15 40 -7
13 -8 13 -8 0z"/>
<path d="M249 53 c-13 -15 -16 -21 -5 -13 16 13 20 12 32 -5 13 -18 14 -17 14
13 0 39 -9 40 -41 5z"/>
<path d="M320 33 c0 -43 5 -41 13 5 4 18 2 32 -3 32 -6 0 -10 -16 -10 -37z"/>
<path d="M360 50 c7 -12 7 -21 0 -25 -5 -3 -10 -11 -10 -17 0 -7 6 -6 15 2 19
16 19 46 0 54 -13 4 -13 2 -5 -14z"/>
<path d="M406 62 c-3 -5 -3 -17 -1 -28 2 -10 4 -22 4 -26 1 -5 9 -8 19 -8 13
0 14 2 3 9 -7 5 -11 13 -7 19 3 6 1 14 -5 18 -8 4 -7 9 2 15 10 6 10 9 2 9 -6
0 -14 -4 -17 -8z"/>
<path d="M466 56 c3 -9 11 -16 16 -16 13 0 5 23 -10 28 -7 2 -10 -2 -6 -12z"/>
<path d="M495 41 c-3 -5 -1 -12 5 -16 5 -3 10 1 10 9 0 18 -6 21 -15 7z"/>
<path d="M470 20 c0 -5 5 -10 11 -10 5 0 7 5 4 10 -3 6 -8 10 -11 10 -2 0 -4
-4 -4 -10z"/>
</g>
</svg>
